<?xml version="1.0" encoding="utf-8"?>
<!-- Generator: Adobe Illustrator 16.0.4, SVG Export Plug-In . SVG Version: 6.00 Build 0)  -->
<!DOCTYPE svg PUBLIC "-//W3C//DTD SVG 1.1//EN" "http://www.w3.org/Graphics/SVG/1.1/DTD/svg11.dtd">
<svg version="1.1" id="Capa_1" xmlns="http://www.w3.org/2000/svg" xmlns:xlink="http://www.w3.org/1999/xlink" x="0px" y="0px"
	 width="612px" height="792px" viewBox="0 0 612 792" enable-background="new 0 0 612 792" xml:space="preserve">
<path d="M533.664,651.816c3.264,6.118,2.244,11.832-3.061,17.136c-2.447,2.448-5.713,3.672-9.791,3.672
	c-2.448,0-4.896-0.612-7.346-1.836l-125.46-73.44c-26.928,7.346-54.264,11.018-82.008,11.018c-38.352,0-74.358-6.426-108.018-19.278
	c-33.66-12.852-63.036-30.294-88.128-52.326s-44.88-47.938-59.364-77.724c-14.484-29.784-21.726-61.608-21.726-95.472
	c0-33.456,7.242-65.076,21.726-94.86c14.484-29.784,34.272-55.692,59.364-77.724c25.092-22.032,54.468-39.474,88.128-52.326
	c33.66-12.852,69.667-19.279,108.019-19.279c38.352,0,74.358,6.426,108.018,19.278c33.66,12.852,63.036,30.294,88.13,52.326
	c25.092,22.032,44.88,47.94,59.362,77.724c14.484,29.784,21.728,61.404,21.728,94.86c0,37.128-8.978,72.318-26.93,105.57
	c-17.95,33.252-43.248,61.506-75.888,84.763L533.664,651.816z"/>
</svg>
