<?xml version="1.0" encoding="utf-8"?>
<!-- Generator: Adobe Illustrator 21.0.0, SVG Export Plug-In . SVG Version: 6.00 Build 0)  -->
<svg version="1.1" id="Capa_1" xmlns="http://www.w3.org/2000/svg" xmlns:xlink="http://www.w3.org/1999/xlink" x="0px" y="0px"
	 viewBox="0 0 25 25" style="enable-background:new 0 0 25 25;" xml:space="preserve">
<style type="text/css">
	.st0{fill:#FFFFFF;stroke:#FFFFFF;stroke-miterlimit:10;}
</style>
<g id="web_-_download_arrow">
	<g>
		<path class="st0" d="M22.2,14.6c-0.4,0-0.7,0.3-0.7,0.7v4.8h-18v-4.8c0-0.4-0.3-0.7-0.7-0.7s-0.7,0.3-0.7,0.7v5.5
			c0,0.4,0.3,0.7,0.7,0.7h19.4c0.4,0,0.7-0.3,0.7-0.7v-5.5C22.9,14.9,22.6,14.6,22.2,14.6z M12,17.1c0.1,0.1,0.3,0.2,0.5,0.2
			s0.4-0.1,0.5-0.2l4.1-4.8c0.3-0.3,0.3-0.7,0-1s-0.7-0.3-1,0l-3,3.5V4.2c0-0.4-0.3-0.7-0.7-0.7s-0.7,0.3-0.7,0.7v10.6l-3-3.5
			c-0.3-0.3-0.7-0.3-1,0c-0.3,0.3-0.3,0.7,0,1L12,17.1z"/>
	</g>
</g>
</svg>
