<?xml version="1.0" standalone="no"?><!DOCTYPE svg PUBLIC "-//W3C//DTD SVG 1.1//EN" "http://www.w3.org/Graphics/SVG/1.1/DTD/svg11.dtd"><svg t="1509413690108" class="icon" style="" viewBox="0 0 1024 1024" version="1.1" xmlns="http://www.w3.org/2000/svg" p-id="4543" xmlns:xlink="http://www.w3.org/1999/xlink" width="200" height="200"><defs><style type="text/css"></style></defs><path d="M510.944 960c-247.04 0-448-200.96-448-448s200.992-448 448-448c247.008 0 448 200.96 448 448S757.984 960 510.944 960zM510.944 128c-211.744 0-384 172.256-384 384 0 211.744 172.256 384 384 384 211.744 0 384-172.256 384-384C894.944 300.256 722.688 128 510.944 128z" p-id="4544"></path><path d="M512 773.344c-89.184 0-171.904-40.32-226.912-110.624-10.88-13.92-8.448-34.016 5.472-44.896 13.888-10.912 34.016-8.48 44.928 5.472 42.784 54.688 107.136 86.048 176.512 86.048 70.112 0 134.88-31.904 177.664-87.552 10.784-14.016 30.848-16.672 44.864-5.888 14.016 10.784 16.672 30.88 5.888 44.864C685.408 732.32 602.144 773.344 512 773.344z" p-id="4545"></path><path d="M368 515.2c-26.528 0-48-21.472-48-48l0-64c0-26.528 21.472-48 48-48s48 21.472 48 48l0 64C416 493.696 394.496 515.2 368 515.2z" p-id="4546"></path><path d="M656 515.2c-26.496 0-48-21.472-48-48l0-64c0-26.528 21.504-48 48-48s48 21.472 48 48l0 64C704 493.696 682.496 515.2 656 515.2z" p-id="4547"></path></svg>