<?xml version="1.0" encoding="utf-8"?>
<!-- Generator: Adobe Illustrator 21.1.0, SVG Export Plug-In . SVG Version: 6.00 Build 0)  -->
<svg version="1.1" id="Capa_1" xmlns="http://www.w3.org/2000/svg" xmlns:xlink="http://www.w3.org/1999/xlink" x="0px" y="0px"
	 viewBox="0 0 32 32" style="enable-background:new 0 0 32 32;" xml:space="preserve">
<g id="_x32__21_">
	<g>
		<path d="M20,3.2L20,3.2c-0.1,0-0.5,0-1.6,0H8.8c-1.8,0-3.2,1.4-3.2,3.2v19.2c0,1.8,1.4,3.2,3.2,3.2h14.4c1.8,0,3.2-1.4,3.2-3.2
			v-16L20,3.2z M24.8,25.6c0,0.9-0.7,1.6-1.6,1.6H8.8c-0.9,0-1.6-0.7-1.6-1.6V6.4c0-0.9,0.7-1.6,1.6-1.6h9.6c0,1.9,0,3.2,0,3.2
			c0,1.8,1.4,3.2,3.2,3.2c0,0,1.3,0,3.2,0V25.6z M21.6,9.6C20.7,9.6,20,8.9,20,8c0,0,0-1.3,0-3.2l4.8,4.8H21.6z"/>
	</g>
</g>
</svg>
