<?xml version="1.0" standalone="no"?><!DOCTYPE svg PUBLIC "-//W3C//DTD SVG 1.1//EN" "http://www.w3.org/Graphics/SVG/1.1/DTD/svg11.dtd"><svg t="1509413671507" class="icon" style="" viewBox="0 0 1024 1024" version="1.1" xmlns="http://www.w3.org/2000/svg" p-id="4427" xmlns:xlink="http://www.w3.org/1999/xlink" width="200" height="200"><defs><style type="text/css"></style></defs><path d="M320 384m-64 0a2 2 0 1 0 128 0 2 2 0 1 0-128 0Z" p-id="4428"></path><path d="M842.688 896 181.312 896C116.64 896 64 843.36 64 778.688L64 245.312C64 180.64 116.64 128 181.312 128l661.376 0C907.36 128 960 180.64 960 245.312l0 533.376C960 843.36 907.36 896 842.688 896zM181.312 192C151.936 192 128 215.936 128 245.312l0 533.376C128 808.096 151.936 832 181.312 832l661.376 0C872.096 832 896 808.096 896 778.688L896 245.312C896 215.936 872.096 192 842.688 192L181.312 192z" p-id="4429"></path><path d="M224 768.992c-3.136 0-6.336-0.48-9.504-1.472-16.864-5.248-26.304-23.136-21.056-40 2.368-7.616 60.16-186.848 183.168-183.648 35.008 0.864 64.32 9.696 92.672 18.24 36.416 10.944 67.904 20.384 109.632 13.728 20.448-3.296 28.896-23.84 43.328-69.984 19.04-60.832 47.808-152.736 174.656-152.736 17.696 0 32 14.336 32 32s-14.304 32-32 32c-75.968 0-92.672 40.992-113.6 107.872-14.496 46.4-32.608 104.16-94.272 114.016-56.288 8.96-99.776-4.128-138.208-15.616-25.408-7.648-49.44-14.88-75.872-15.52-0.48-0.032-0.96-0.032-1.44-0.032-62.016 0-106.88 99.872-119.008 138.656C250.272 760.192 237.632 768.992 224 768.992z" p-id="4430"></path></svg>