<?xml version="1.0" encoding="utf-8"?>
<!-- Generator: Adobe Illustrator 21.1.0, SVG Export Plug-In . SVG Version: 6.00 Build 0)  -->
<svg version="1.1" id="Capa_1" xmlns="http://www.w3.org/2000/svg" xmlns:xlink="http://www.w3.org/1999/xlink" x="0px" y="0px"
	 viewBox="0 0 40 40" style="enable-background:new 0 0 40 40;" xml:space="preserve">
<g id="_x36_4._Trash">
	<g>
		<path d="M20,28.8c0.8,0,1.5-0.7,1.5-1.5V15.6c0-0.8-0.7-1.5-1.5-1.5s-1.5,0.7-1.5,1.5v11.8C18.5,28.2,19.2,28.8,20,28.8z
			 M31.8,8.2h-4.4V6.8c0-0.8-0.7-1.5-1.5-1.5H14.1c-0.8,0-1.5,0.7-1.5,1.5v1.5H8.2c-0.8,0-1.5,0.7-1.5,1.5s0.7,1.5,1.5,1.5v20.6
			c0,1.6,1.3,2.9,2.9,2.9h17.7c1.6,0,2.9-1.3,2.9-2.9V11.2c0.8,0,1.5-0.7,1.5-1.5S32.6,8.2,31.8,8.2z M28.8,31.8H11.2V11.2h17.7
			V31.8z M15.6,28.8c0.8,0,1.5-0.7,1.5-1.5V15.6c0-0.8-0.7-1.5-1.5-1.5s-1.5,0.7-1.5,1.5v11.8C14.1,28.2,14.8,28.8,15.6,28.8z
			 M24.4,28.8c0.8,0,1.5-0.7,1.5-1.5V15.6c0-0.8-0.7-1.5-1.5-1.5c-0.8,0-1.5,0.7-1.5,1.5v11.8C22.9,28.2,23.6,28.8,24.4,28.8z"/>
	</g>
</g>
</svg>
