<?xml version="1.0" encoding="utf-8"?>
<!-- Generator: Adobe Illustrator 21.1.0, SVG Export Plug-In . SVG Version: 6.00 Build 0)  -->
<svg version="1.1" id="Layer_1" xmlns="http://www.w3.org/2000/svg" xmlns:xlink="http://www.w3.org/1999/xlink" x="0px" y="0px"
	 viewBox="0 0 128 128" style="enable-background:new 0 0 128 128;" xml:space="preserve">
<path d="M21.8,108h83.9c5.9,0,9.6-6.2,7-11.4l-42-74.3c-2.9-5.8-11.2-5.8-14.1,0l-42,74.3C12.2,101.8,16,108,21.8,108z M70.4,90.7
	c0,3.9-2.8,6.8-6.8,6.8s-6.8-3-6.8-6.8v-0.2c0-3.9,2.8-6.8,6.8-6.8s6.8,3,6.8,6.8V90.7z M59.9,40.5h7.9c2.2,0,3.5,1.8,3.2,4.2
	l-3.5,30.2c-0.2,2.2-1.7,3.5-3.7,3.5c-2,0-3.5-1.4-3.7-3.5l-3.5-30.2C56.4,42.3,57.7,40.5,59.9,40.5z"/>
</svg>
